grf
version=1
nRows=6
nColumns=37
inDegrees=no
endheader
time	ground_force_1_vx	ground_force_1_vy	ground_force_1_vz	ground_force_1_px	ground_force_1_py	ground_force_1_pz	ground_moment_1_mx	ground_moment_1_my	ground_moment_1_mz	ground_force_2_vx	ground_force_2_vy	ground_force_2_vz	ground_force_2_px	ground_force_2_py	ground_force_2_pz	ground_moment_2_mx	ground_moment_2_my	ground_moment_2_mz	ground_force_3_vx	ground_force_3_vy	ground_force_3_vz	ground_force_3_px	ground_force_3_py	ground_force_3_pz	ground_moment_3_mx	ground_moment_3_my	ground_moment_3_mz	ground_force_4_vx	ground_force_4_vy	ground_force_4_vz	ground_force_4_px	ground_force_4_py	ground_force_4_pz	ground_moment_4_mx	ground_moment_4_my	ground_moment_4_mz
      0.00000000	      0.00000000	     -0.00000000	      0.00000000	      0.00000000	      0.00000000	      0.00000000	      0.00000000	      0.00000000	      0.00000000	      7.31526184	     63.22586823	   -408.75756836	   -297.27534372	  -1110.52322175	      0.00000000	      0.00000000	     -0.00000000	  -1200.01781778	    -11.22644281	    -59.96276376	   -418.63281250	   -284.94461552	   -697.70017860	      0.00000000	      0.00000000	     -0.00000000	  -2054.07406603	      0.00000000	     -0.00000000	      0.00000000	      0.00000000	      0.00000000	      0.00000000	      0.00000000	      0.00000000	      0.00000000
      0.01000000	      0.00000000	     -0.00000000	      0.00000000	      0.00000000	      0.00000000	      0.00000000	      0.00000000	      0.00000000	      0.00000000	      6.99921799	     64.11723328	   -406.67163086	   -296.08792947	  -1110.67071675	      0.00000000	      0.00000000	     -0.00000000	  -1259.14988734	    -12.15338278	    -59.97826661	   -418.69750977	   -284.84342024	   -697.19106131	      0.00000000	      0.00000000	     -0.00000000	  -2013.74900403	      0.00000000	     -0.00000000	      0.00000000	      0.00000000	      0.00000000	      0.00000000	      0.00000000	      0.00000000	      0.00000000
      0.02000000	      0.00000000	     -0.00000000	      0.00000000	      0.00000000	      0.00000000	      0.00000000	      0.00000000	      0.00000000	      0.00000000	      6.84515858	     64.22195435	   -402.46847534	   -294.48142979	  -1109.53456229	      0.00000000	      0.00000000	     -0.00000000	  -1014.56197415	    -11.66149953	    -60.32371419	   -419.52133179	   -284.84527088	   -697.19618053	      0.00000000	      0.00000000	     -0.00000000	  -1871.05027771	      0.00000000	     -0.00000000	      0.00000000	      0.00000000	      0.00000000	      0.00000000	      0.00000000	      0.00000000	      0.00000000
      0.03000000	      0.00000000	     -0.00000000	      0.00000000	      0.00000000	      0.00000000	      0.00000000	      0.00000000	      0.00000000	      0.00000000	      5.01971865	     63.76955032	   -401.56561279	   -292.40572643	  -1110.93433173	      0.00000000	      0.00000000	     -0.00000000	  -1161.46251023	    -10.32278972	    -60.56474214	   -420.78973389	   -285.16684731	   -697.08361962	      0.00000000	      0.00000000	     -0.00000000	  -2118.17010222	      0.00000000	     -0.00000000	      0.00000000	      0.00000000	      0.00000000	      0.00000000	      0.00000000	      0.00000000	      0.00000000
      0.04000000	      0.00000000	     -0.00000000	      0.00000000	      0.00000000	      0.00000000	      0.00000000	      0.00000000	      0.00000000	      0.00000000	      3.56253195	     62.81317902	   -399.55273438	   -291.12680194	  -1109.89986362	      0.00000000	      0.00000000	     -0.00000000	  -1020.70039910	     -9.69337136	    -60.75001823	   -420.78820801	   -285.00986376	   -696.62297479	      0.00000000	      0.00000000	     -0.00000000	  -1796.46499009	      0.00000000	     -0.00000000	      0.00000000	      0.00000000	      0.00000000	      0.00000000	      0.00000000	      0.00000000	      0.00000000
      0.05000000	      0.00000000	     -0.00000000	      0.00000000	      0.00000000	      0.00000000	      0.00000000	      0.00000000	      0.00000000	      0.00000000	      2.77464843	     60.85243225	   -400.75088501	   -288.66141798	  -1110.65954901	      0.00000000	      0.00000000	     -0.00000000	   -939.33549349	     -8.65249311	    -61.22193452	   -421.17044067	   -285.58766155	   -697.78808311	      0.00000000	      0.00000000	     -0.00000000	  -1965.16017202	      0.00000000	     -0.00000000	      0.00000000	      0.00000000	      0.00000000	      0.00000000	      0.00000000	      0.00000000	      0.00000000
